<svg xmlns="http://www.w3.org/2000/svg" width="12" height="12" viewBox="0 0 12 12" fill="none">
  <path d="M6.7831 5.99972L11.3887 1.39417C11.4797 1.28789 11.5272 1.15118 11.5218 1.01136C11.5164 0.87154 11.4585 0.738907 11.3595 0.639966C11.2606 0.541025 11.128 0.483062 10.9881 0.477661C10.8483 0.472261 10.7116 0.51982 10.6053 0.610834L5.99977 5.21639L1.39421 0.605279C1.2896 0.500666 1.14771 0.441895 0.999768 0.441895C0.851823 0.441895 0.709937 0.500666 0.605324 0.605279C0.50071 0.709892 0.441939 0.851778 0.441939 0.999723C0.441939 1.14767 0.50071 1.28955 0.605324 1.39417L5.21643 5.99972L0.605324 10.6053C0.547167 10.6551 0.499934 10.7164 0.466587 10.7853C0.433241 10.8542 0.414502 10.9293 0.411547 11.0058C0.408592 11.0823 0.421483 11.1586 0.449414 11.2299C0.477344 11.3012 0.51971 11.3659 0.573851 11.4201C0.627993 11.4742 0.692741 11.5166 0.764033 11.5445C0.835325 11.5725 0.91162 11.5853 0.988131 11.5824C1.06464 11.5794 1.13972 11.5607 1.20864 11.5273C1.27757 11.494 1.33885 11.4468 1.38866 11.3886L5.99977 6.78306L10.6053 11.3886C10.7116 11.4796 10.8483 11.5272 10.9881 11.5218C11.128 11.5164 11.2606 11.4584 11.3595 11.3595C11.4585 11.2605 11.5164 11.1279 11.5218 10.9881C11.5272 10.8483 11.4797 10.7116 11.3887 10.6053L6.7831 5.99972Z" fill="#FFFDF5"/>
</svg>